<svg xmlns="http://www.w3.org/2000/svg" viewBox="0 0 512 512">
  <defs>
    <radialGradient id="bg" cx="50%" cy="45%" r="70%">
      <stop offset="0" stop-color="#3f76ae"/>
      <stop offset="0.55" stop-color="#1c426b"/>
      <stop offset="1" stop-color="#0a1626"/>
    </radialGradient>
    <pattern id="grid" width="32" height="32" patternUnits="userSpaceOnUse">
      <path d="M32 0H0V32" fill="none" stroke="#bedcff" stroke-opacity="0.09" stroke-width="2"/>
    </pattern>
  </defs>
  <rect width="512" height="512" fill="url(#bg)"/>
  <rect width="512" height="512" fill="url(#grid)"/>
  <circle cx="256" cy="256" r="150" fill="none" stroke="#e3f1ff" stroke-opacity="0.8" stroke-width="9" stroke-dasharray="22 16"/>
  <path d="M256 170c-10 0-18 6-22 14-8-6-24-6-34 4 18 2 28 12 32 24-34 8-58 38-58 76 0 46 36 80 82 80s82-34 82-80c0-38-24-68-58-76 2-14 6-26 14-36-12 0-22 8-28 18-2-14-6-22-10-24z" fill="#010611" fill-opacity="0.78"/>
  <circle cx="362" cy="362" r="30" fill="#f5b841"/>
  <circle cx="362" cy="362" r="30" fill="none" stroke="#7a4a00" stroke-opacity="0.35" stroke-width="4"/>
</svg>
